<svg width="666" height="666" viewBox="0 0 666 666" fill="none" xmlns="http://www.w3.org/2000/svg">
<rect width="666" height="666" rx="333" fill="#3850D2"/>
<path fill-rule="evenodd" clip-rule="evenodd" d="M411.227 248.431C413.491 253.021 415.127 256.336 415.127 258.981C415.127 261.244 411.971 262.806 407.322 265.107C394.319 271.544 369.631 283.764 369.631 333.29C369.631 400.522 428.775 424.281 464.666 424.281C495.618 424.281 509.276 404.732 514.394 397.406C515.211 396.237 515.81 395.379 516.228 394.961C518.64 392.549 518.494 400.051 518.334 408.309C518.292 410.433 518.25 412.608 518.25 414.676C518.25 415.72 514.864 417.599 510.089 420.249C498.675 426.583 479.326 437.322 479.326 451.578C479.326 471.798 493.986 481.403 500.557 481.403C505.123 481.403 502.124 469.445 499.868 460.45C498.877 456.5 498.03 453.121 498.03 451.578C498.03 446.523 505.107 446.523 510.667 446.523C513.973 446.523 511.74 450.455 509.385 454.599C507.779 457.425 506.118 460.349 506.118 462.194C506.118 463.994 507.226 465.556 508.565 467.445C510.61 470.33 513.195 473.976 513.195 480.392C513.195 491.007 510.667 505.667 493.986 511.733C493.986 511.733 447.479 527.909 418.665 527.909C389.852 527.909 322.114 476.348 322.114 444.501C322.114 427.658 325.224 407.281 328.155 388.081C330.766 370.975 333.235 354.803 333.235 342.895C333.235 317.619 331.718 294.872 300.883 294.872C270.047 294.872 261.453 394.961 294.817 394.961C328.18 394.961 323.63 518.81 261.453 518.81C209.253 517.329 199.078 533.743 197.371 532.905C196.747 532.599 197.254 529.989 197.254 523.36C197.254 510.975 208.881 508.068 220.507 505.161C232.134 502.255 243.761 499.348 243.761 486.963C243.761 462.194 208.375 466.238 208.375 488.48C208.375 510.722 164.396 527.909 156.814 527.909C154.512 527.909 157.978 524.883 162.804 520.667C173.882 510.991 192.131 495.051 164.316 495.051C144.922 495.051 135.624 523.506 131.354 536.575C128.723 544.626 128 546.838 128 532.964C128 520.659 130.831 512.11 134.579 500.792C141.917 478.633 152.77 445.861 152.77 353.51C152.77 259.992 198.265 123 351.433 123C415.127 123 504.096 178.606 504.096 199.837C504.096 211.463 504.096 216.013 494.491 216.013C491.851 216.013 483.363 211.393 472.441 205.447C443.623 189.761 397.86 164.85 397.86 191.243C397.86 221.337 406.134 238.108 411.227 248.431ZM488.345 222.079C488.345 216.013 428.19 184.166 408.981 183.661C389.771 183.155 408.981 240.277 420.102 259.486C421.499 262.436 417.651 264.48 411.647 267.669C398.104 274.861 373.595 287.878 373.595 330.257C373.595 391.424 422.124 420.743 465.092 420.743C496.938 420.743 514.206 394.962 509.151 394.962C401.984 396.984 432.819 328.235 447.984 328.235C455.946 328.235 464.744 330.743 471.306 332.614C477.242 334.306 481.348 335.477 481.348 333.796C481.348 332.138 476.019 330.257 470.356 328.259C463.935 325.993 457.084 323.576 457.084 321.158C457.084 318.943 467.746 316.968 478.69 314.941C490.226 312.804 502.073 310.609 502.073 308.015C502.073 302.96 493.48 294.872 481.348 294.872C474.76 294.872 466.384 296.661 458.728 298.295C452.284 299.671 446.351 300.938 442.424 300.938C433.83 300.938 458.6 280.212 478.315 280.212C490.995 280.212 498.238 287.532 503.407 292.756C506.274 295.653 508.503 297.905 510.667 297.905C510.667 287.873 502.081 263.452 495.559 244.901C491.565 233.541 488.345 224.383 488.345 222.079ZM502.073 366.654C491.963 366.654 486.908 390.918 498.029 390.918C505.79 390.918 507.776 389.246 509.57 387.736C511.047 386.492 512.395 385.357 516.733 385.357C521.901 385.357 522.825 387.407 523.678 389.3C524.41 390.925 525.091 392.434 528.36 392.434C535.437 392.434 538.975 385.357 538.975 375.247C538.975 365.137 506.117 317.114 504.095 317.114C503.619 317.114 504.435 319.869 505.683 324.08C509.726 337.725 518.298 366.654 502.073 366.654Z" fill="white"/>
</svg>
