<?xml version="1.0" encoding="UTF-8"?>
<svg width="1200pt" height="1200pt" version="1.1" viewBox="0 0 1200 1200"
    xmlns="http://www.w3.org/2000/svg">
    <g fill="purple"
    >
        <path
            d="m208.86 212.87 85.367 117.54h-111.13c-11.723 0-22.355 6.8164-27.254 17.461-4.8828 10.645-3.1562 23.16 4.4766 32.051l93.527 109.19 242.16 282.6v228.94h-36.254c-16.57 0-30 13.43-30 30 0 16.57 13.43 30 30 30h132.49c16.57 0 30-13.43 30-30 0-16.57-13.43-30-30-30h-36.254l0.007813-228.94 193.4-225.7c35.473 22.883 76.895 35.438 119.51 35.438 121.88 0 221.05-99.156 221.05-221.04 0-121.88-99.168-221.05-221.05-221.05-111.68 0-204.05 83.34-218.77 191.05l-281.75-0.003906-117.98-162.45c-4.4883-6.1914-11.195-10.43-18.707-11.844l-86.074-16.246c-16.262-3.0586-31.98 7.6328-35.051 23.914-3.0703 16.273 7.6445 31.969 23.914 35.039zm128.95 177.54 35.723 49.188h-83.102l-42.121-49.188zm188.18 324.11-184.16-214.92h75.277l84.625 116.5c5.8672 8.0742 15.012 12.371 24.289 12.371 6.1211 0 12.277-1.8594 17.605-5.7227 13.402-9.7422 16.379-28.5 6.6484-41.902l-59.004-81.238h218.88zm235.58-274.92h-32.941c-8.6758-15.312-14.41-31.945-17.664-49.188h92.734zm107.33-240.24c88.801 0 161.05 72.254 161.05 161.05 0 88.801-72.254 161.04-161.05 161.04-28.262 0-55.883-7.4766-80.113-21.422l9.3594-10.922c0-0.011718 0.011718-0.011718 0.011718-0.011718l93.516-109.18c7.6328-8.8906 9.3594-21.422 4.4766-32.051-4.8945-10.645-15.539-17.461-27.254-17.461l-158.14 0.003906c14.109-74.496 79.594-131.05 158.14-131.05zm-218.93 191.05c2.293 16.895 6.4922 33.371 12.562 49.188l-214.86 0.003906-35.723-49.188z" />
        <path
            d="m940.8 451.68c7.9219 0 15.613-3.2383 21.254-8.7617 5.6406-5.6406 8.7461-13.441 8.7461-21.238 0-7.9219-3.1211-15.719-8.7461-21.238-11.16-11.16-31.32-11.16-42.48 0-5.5195 5.5195-8.7617 13.32-8.7617 21.238 0 7.8008 3.2539 15.602 8.7617 21.238 5.625 5.5234 13.316 8.7617 21.227 8.7617z" />
    </g>
</svg>